<mxfile host="app.diagrams.net" agent="Mozilla/5.0 (X11; Linux x86_64; rv:142.0) Gecko/20100101 Firefox/142.0" version="28.2.0">
  <diagram name="Page-1" id="Ya0r5GXySB50RGIxnoJt">
    <mxGraphModel dx="665" dy="339" grid="1" gridSize="10" guides="1" tooltips="1" connect="1" arrows="1" fold="1" page="1" pageScale="1" pageWidth="850" pageHeight="1100" math="0" shadow="0">
      <root>
        <mxCell id="0" />
        <mxCell id="1" parent="0" />
        <mxCell id="-lLW3y7jFGByGw_7vsKM-3" value="" style="edgeStyle=orthogonalEdgeStyle;rounded=0;orthogonalLoop=1;jettySize=auto;html=1;" edge="1" parent="1" source="-lLW3y7jFGByGw_7vsKM-1" target="-lLW3y7jFGByGw_7vsKM-2">
          <mxGeometry relative="1" as="geometry" />
        </mxCell>
        <mxCell id="-lLW3y7jFGByGw_7vsKM-1" value="&lt;div&gt;Продукт&lt;/div&gt;" style="rounded=0;whiteSpace=wrap;html=1;" vertex="1" parent="1">
          <mxGeometry x="140" y="60" width="120" height="60" as="geometry" />
        </mxCell>
        <mxCell id="-lLW3y7jFGByGw_7vsKM-2" value="Название&lt;br&gt;&lt;br&gt;&lt;br&gt;&lt;br&gt;кол-во&lt;br&gt;срок годности" style="rounded=0;whiteSpace=wrap;html=1;" vertex="1" parent="1">
          <mxGeometry x="300" y="15" width="80" height="150" as="geometry" />
        </mxCell>
      </root>
    </mxGraphModel>
  </diagram>
</mxfile>
